Coordinates
version=1
nRows=21
nColumns=12
inDegrees=yes

Units are S.I. units (second, meters, Newtons, ...)
Angles are in degrees

endheader
time	SC_y	SC_z	SC_x	AC_y	AC_z	AC_x	GH_y	GH_z	GH_yy	EL_x	PS_y
       0.0              -22.46          8.906          48.99          53.94         -9.476          14.93         -45.41         -14.75          94.26          36.86           44.5
   0.04595              -22.46           8.91          48.99          53.94         -9.477          14.93          -45.4         -14.74          94.27          36.86          44.49
    0.0919              -22.46          8.914          48.98          53.94         -9.477          14.93         -45.38         -14.73          94.28          36.87          44.49
    0.1379              -22.46          8.918          48.97          53.94         -9.478          14.92         -45.36         -14.72          94.29          36.87          44.49
    0.1838              -22.46          8.923          48.96          53.93         -9.479          14.92         -45.34         -14.71           94.3          36.87          44.49
    0.2298              -22.46          8.927          48.96          53.93          -9.48          14.92         -45.32          -14.7          94.31          36.88          44.48
    0.2757              -22.46          8.933          48.95          53.93         -9.481          14.92          -45.3         -14.69          94.33          36.88          44.48
    0.3217              -22.46          8.938          48.94          53.93         -9.482          14.91         -45.28         -14.67          94.34          36.89          44.48
    0.3676              -22.46          8.944          48.93          53.93         -9.483          14.91         -45.25         -14.66          94.36          36.89          44.47
    0.4136              -22.46           8.95          48.92          53.93         -9.484          14.91         -45.23         -14.64          94.37           36.9          44.47
    0.4595              -22.46          8.957          48.91          53.93         -9.485          14.91          -45.2         -14.63          94.39           36.9          44.46
    0.5055              -22.46          8.964          48.89          53.92         -9.487           14.9         -45.17         -14.61          94.41          36.91          44.46
    0.5514              -22.46          8.972          48.88          53.92         -9.488           14.9         -45.13         -14.59          94.43          36.92          44.45
    0.5974              -22.46           8.98          48.87          53.92          -9.49           14.9          -45.1         -14.57          94.45          36.92          44.45
    0.6433              -22.46           8.99          48.85          53.92         -9.491          14.89         -45.06         -14.55          94.48          36.93          44.44
    0.6893              -22.46          8.999          48.83          53.91         -9.493          14.89         -45.01         -14.52           94.5          36.94          44.44
    0.7352              -22.46           9.01          48.81          53.91         -9.495          14.88         -44.97          -14.5          94.53          36.95          44.43
    0.7812              -22.46          9.022          48.79          53.91         -9.497          14.88         -44.92         -14.47          94.56          36.96          44.42
    0.8271              -22.46          9.035          48.77          53.91           -9.5          14.87         -44.86         -14.43          94.59          36.97          44.41
    0.8731              -22.47          9.049          48.75           53.9         -9.502          14.86          -44.8          -14.4          94.63          36.99           44.4
     0.919              -22.47          9.064          48.72           53.9         -9.505          14.86         -44.74         -14.36          94.67           37.0          44.39
